<?xml version="1.0" encoding="UTF-8" standalone="no"?>
<svg
   xmlns:dc="http://purl.org/dc/elements/1.1/"
   xmlns:cc="http://creativecommons.org/ns#"
   xmlns:rdf="http://www.w3.org/1999/02/22-rdf-syntax-ns#"
   xmlns:svg="http://www.w3.org/2000/svg"
   xmlns="http://www.w3.org/2000/svg"
   xmlns:sodipodi="http://sodipodi.sourceforge.net/DTD/sodipodi-0.dtd"
   xmlns:inkscape="http://www.inkscape.org/namespaces/inkscape"
   height="32px"
   style="enable-background:new 0 0 32 32;"
   version="1.1"
   viewBox="0 0 32 32"
   width="32px"
   x="0px"
   xml:space="preserve"
   y="0px"
   id="svg3039"
   inkscape:version="0.48.2 r9819"
   sodipodi:docname="brush.svg"><metadata
     id="metadata3053"><rdf:RDF><cc:Work
         rdf:about=""><dc:format>image/svg+xml</dc:format><dc:type
           rdf:resource="http://purl.org/dc/dcmitype/StillImage" /></cc:Work></rdf:RDF></metadata><defs
     id="defs3051" /><sodipodi:namedview
     pagecolor="#ffffff"
     bordercolor="#666666"
     borderopacity="1"
     objecttolerance="10"
     gridtolerance="10"
     guidetolerance="10"
     inkscape:pageopacity="0"
     inkscape:pageshadow="2"
     inkscape:window-width="1440"
     inkscape:window-height="768"
     id="namedview3049"
     showgrid="false"
     inkscape:zoom="16.038837"
     inkscape:cx="19.447362"
     inkscape:cy="15.645733"
     inkscape:window-x="0"
     inkscape:window-y="0"
     inkscape:window-maximized="1"
     inkscape:current-layer="brush_x5F_alt" /><g
     id="Layer_1" /><g
     id="brush_x5F_alt"><g
       id="g3043"><path
         d="M12,24c0-2.211-1.793-4-4-4c-2.211,0-4,1.789-4,4v0.008c0,2.957-1.609,5.535-4,6.918l0.016,0.012    C1.188,31.613,2.547,32,4,32C8.418,32,12,28.418,12,24L12,24z"
         style="fill:#4E4E50;"
         id="path3045" /><path
         d="M30.828,1.172c-1.562-1.562-4.094-1.562-5.656,0L10.047,16.297c2.758,0.738,4.922,2.898,5.656,5.66    L30.828,6.828C32.391,5.266,32.391,2.734,30.828,1.172z"
         style="fill:#4E4E50;"
         id="path3047" /></g><path
       style="fill:#31dcb5;fill-opacity:0"
       d="m 15.578223,21.45243 c -0.73216,-2.265041 -2.630519,-4.183091 -4.95613,-5.007534 L 10.13284,16.271453 17.916886,8.4974858 25.700933,0.72351899 26.230896,0.46802082 c 0.6833,-0.32942226 1.410493,-0.47973367 2.04343,-0.42237846 1.648629,0.14939493 3.034299,1.25443124 3.523798,2.81014024 0.206986,0.657834 0.191389,1.6890253 -0.03583,2.369249 -0.09164,0.2743341 -0.283806,0.6811591 -0.427038,0.9040556 -0.190791,0.2969081 -2.312538,2.4602095 -7.93548,8.0908978 l -7.67506,7.685633 -0.14649,-0.453188 z"
       id="path3829"
       inkscape:connector-curvature="0" /><path
       style="fill:#31dcb5;fill-opacity:1"
       d="m 15.684698,21.776024 c -0.768912,-2.513979 -2.601914,-4.462512 -4.985312,-5.299526 -0.267729,-0.09402 -0.49816,-0.182332 -0.512071,-0.196242 -0.01391,-0.01391 3.473769,-3.520923 7.750398,-7.793362 l 7.77569,-7.7680708 0.529963,-0.25541162 c 0.74768,-0.36033822 1.458676,-0.49018901 2.183247,-0.39873134 1.562379,0.19720847 2.804441,1.20338396 3.326597,2.69482546 0.162692,0.4647013 0.186757,0.6202835 0.188478,1.2185527 0.0023,0.7817051 -0.09214,1.1779602 -0.445563,1.8704598 -0.20648,0.4045842 -0.790642,1.0051159 -8.003175,8.2274458 -4.947866,4.954588 -7.790563,7.757896 -7.808252,7.70006 l 0,0 z"
       id="path3831"
       inkscape:connector-curvature="0" /><path
       style="fill:#31dcb5;fill-opacity:1"
       d="M 2.5881027,31.844993 C 1.8246226,31.701336 0.5547028,31.243631 0.22180661,30.992132 0.11441898,30.911001 0.13679457,30.885014 0.53354991,30.630065 1.0878478,30.273882 2.2565237,29.105546 2.6379531,28.526274 3.5080951,27.2048 3.9297507,25.904673 4.0175154,24.272547 4.097489,22.785309 4.374138,22.075873 5.1993123,21.241958 c 0.3967105,-0.400913 0.6097933,-0.559131 1.0301341,-0.764894 1.19601,-0.585466 2.3630572,-0.585206 3.5517631,7.9e-4 1.0321345,0.508811 1.8539585,1.571488 2.0908315,2.703592 0.307379,1.469082 -0.192939,3.615384 -1.199047,5.143764 -1.1518239,1.749737 -2.7982887,2.907851 -4.8799882,3.432558 -0.7056694,0.177868 -2.4682288,0.225839 -3.2049031,0.08723 l 0,0 z"
       id="path3833"
       inkscape:connector-curvature="0" /><path
       style="fill:#31dcb5;fill-opacity:1"
       d="M 2.6543585,31.813765 C 2.0609026,31.714159 1.0823844,31.387653 0.4729282,31.08588 L 0.17191772,30.936833 0.69114851,30.543565 C 1.3129504,30.072609 2.3016292,29.064509 2.6596011,28.536444 2.9576929,28.096713 3.3566575,27.324745 3.5421159,26.828842 3.7866881,26.174873 3.9222979,25.497004 4.0472092,24.304047 4.2044086,22.802725 4.341638,22.36582 4.8760805,21.665121 5.6185528,20.691677 6.807242,20.095187 8.0046543,20.095187 c 1.6550096,0 3.1641197,1.095272 3.7226177,2.701777 0.187684,0.539867 0.228368,1.733698 0.08534,2.504336 -0.379184,2.043106 -1.502521,3.867855 -3.1203975,5.068773 -0.9329586,0.692516 -2.3939417,1.298586 -3.4804493,1.443818 -0.5600299,0.07486 -2.1111057,0.07478 -2.5574107,-1.24e-4 l 0,-2e-6 z"
       id="path3835"
       inkscape:connector-curvature="0" /><path
       style="fill:#31dcb5;fill-opacity:1"
       d="M 15.553233,21.326573 C 15.489711,21.146541 15.312237,20.747158 15.158847,20.439055 14.23972,18.59287 12.849051,17.321886 10.859725,16.509928 l -0.575834,-0.23503 0.868039,-0.911133 c 0.477422,-0.501123 3.96309,-4.003501 7.74593,-7.783062 6.6403,-6.63454486 6.892766,-6.87863537 7.308509,-7.06603375 0.963283,-0.43420572 1.81184,-0.53145813 2.692429,-0.30857714 0.785034,0.19869561 1.232303,0.45669592 1.835643,1.05886269 0.875011,0.8733099 1.230189,1.7929407 1.160654,3.0051859 -0.05061,0.8823701 -0.287471,1.4478498 -0.904646,2.1597775 -0.693026,0.7994227 -15.123747,15.2239848 -15.230485,15.2239848 -0.05383,0 -0.138587,-0.134199 -0.206731,-0.32733 z"
       id="path3837"
       inkscape:connector-curvature="0" /><path
       style="fill:#31dcb5;fill-opacity:1"
       d="m 15.525415,21.264224 c -0.857138,-2.238381 -2.4332,-3.844498 -4.665562,-4.754531 l -0.575706,-0.234689 0.431344,-0.474745 C 10.95273,15.53915 14.45237,12.025409 18.492468,7.9919467 L 25.8381,0.65837836 26.316382,0.46358945 c 0.754195,-0.30715904 1.244345,-0.40082621 1.890967,-0.3613617 1.066638,0.0650989 1.915091,0.47501272 2.66929,1.28961665 0.742154,0.8015951 1.079394,1.7415173 1.020032,2.8429295 -0.04973,0.9227652 -0.271304,1.4625425 -0.897443,2.1862964 -0.675686,0.7810274 -15.131661,15.2328327 -15.237227,15.2328327 -0.04969,0 -0.151721,-0.168057 -0.236586,-0.389679 z"
       id="path3839"
       inkscape:connector-curvature="0" /></g></svg>