<?xml version="1.0" encoding="UTF-8" standalone="no"?>
<svg
   xmlns:dc="http://purl.org/dc/elements/1.1/"
   xmlns:cc="http://creativecommons.org/ns#"
   xmlns:rdf="http://www.w3.org/1999/02/22-rdf-syntax-ns#"
   xmlns:svg="http://www.w3.org/2000/svg"
   xmlns="http://www.w3.org/2000/svg"
   xmlns:sodipodi="http://sodipodi.sourceforge.net/DTD/sodipodi-0.dtd"
   xmlns:inkscape="http://www.inkscape.org/namespaces/inkscape"
   enable-background="new 0 0 56.693 56.693"
   height="56.693px"
   id="Layer_1"
   version="1.1"
   viewBox="0 0 56.693 56.693"
   width="56.693px"
   x="0px"
   xml:space="preserve"
   y="0px"
   inkscape:version="0.48.2 r9819"
   sodipodi:docname="drive.svg"><metadata
     id="metadata5379"><rdf:RDF><cc:Work
         rdf:about=""><dc:format>image/svg+xml</dc:format><dc:type
           rdf:resource="http://purl.org/dc/dcmitype/StillImage" /></cc:Work></rdf:RDF></metadata><defs
     id="defs5377" /><sodipodi:namedview
     pagecolor="#ffffff"
     bordercolor="#666666"
     borderopacity="1"
     objecttolerance="10"
     gridtolerance="10"
     guidetolerance="10"
     inkscape:pageopacity="0"
     inkscape:pageshadow="2"
     inkscape:window-width="1440"
     inkscape:window-height="768"
     id="namedview5375"
     showgrid="false"
     inkscape:zoom="4.1627714"
     inkscape:cx="-14.17325"
     inkscape:cy="28.3465"
     inkscape:window-x="0"
     inkscape:window-y="0"
     inkscape:window-maximized="1"
     inkscape:current-layer="g5367" /><g
     id="g5367"><polygon
       points="20.803,39.493 20.525,39.493 20.389,39.733 13.629,51.554 13.221,52.267 14.043,52.267 45.574,52.267    45.852,52.267 45.988,52.026 52.748,40.206 53.158,39.493 52.334,39.493  "
       id="polygon5369"
       style="fill:#4dffeb;fill-opacity:1" /><polygon
       points="38.307,36.507 38.445,36.745 38.723,36.745 52.336,36.687 53.16,36.683 52.748,35.972 36.982,8.665 36.846,8.426    36.568,8.427 22.951,8.482 22.129,8.486 22.541,9.198  "
       id="polygon5371"
       style="fill:#4dffeb;fill-opacity:1" /><polygon
       points="26.979,22.623 26.84,22.382 19.982,10.62 19.568,9.91 19.157,10.622 3.391,37.929 3.252,38.167 3.392,38.407    10.25,50.171 10.663,50.882 11.074,50.169 26.84,22.861  "
       id="polygon5373"
       style="fill:#4dffeb;fill-opacity:1" /></g></svg>