<?xml version="1.0" encoding="UTF-8" standalone="no"?>
<svg
   xmlns:dc="http://purl.org/dc/elements/1.1/"
   xmlns:cc="http://creativecommons.org/ns#"
   xmlns:rdf="http://www.w3.org/1999/02/22-rdf-syntax-ns#"
   xmlns:svg="http://www.w3.org/2000/svg"
   xmlns="http://www.w3.org/2000/svg"
   xmlns:sodipodi="http://sodipodi.sourceforge.net/DTD/sodipodi-0.dtd"
   xmlns:inkscape="http://www.inkscape.org/namespaces/inkscape"
   height="56.25"
   id="svg2"
   version="1.1"
   width="56.25"
   xml:space="preserve"
   inkscape:version="0.48.2 r9819"
   sodipodi:docname="png.svg"><metadata
     id="metadata3132"><rdf:RDF><cc:Work
         rdf:about=""><dc:format>image/svg+xml</dc:format><dc:type
           rdf:resource="http://purl.org/dc/dcmitype/StillImage" /></cc:Work></rdf:RDF></metadata><sodipodi:namedview
     pagecolor="#ffffff"
     bordercolor="#666666"
     borderopacity="1"
     objecttolerance="10"
     gridtolerance="10"
     guidetolerance="10"
     inkscape:pageopacity="0"
     inkscape:pageshadow="2"
     inkscape:window-width="1440"
     inkscape:window-height="770"
     id="namedview3130"
     showgrid="false"
     inkscape:zoom="4.1955556"
     inkscape:cx="-14.0625"
     inkscape:cy="28.311165"
     inkscape:window-x="0"
     inkscape:window-y="0"
     inkscape:window-maximized="1"
     inkscape:current-layer="g14" /><defs
     id="defs6"><clipPath
       id="clipPath16"><path
         d="M 0,0 0,45 45,45 45,0 0,0"
         id="path18" /></clipPath></defs><g
     id="g10"
     transform="matrix(1.25,0,0,-1.25,0,56.25)"><g
       id="g12"><g
         clip-path="url(#clipPath16)"
         id="g14"><g
           id="g22"
           style="fill:#4dffeb;fill-opacity:1"><g
             id="g24"
             style="fill:#4dffeb;fill-opacity:1"><path
               inkscape:connector-curvature="0"
               style="fill:#4dffeb;fill-opacity:1;fill-rule:evenodd;stroke:none"
               id="path26"
               d="m 9.347,6.027 0,32.946 c 0,0.843 0.684,1.527 1.527,1.527 l 13.349,0 11.43,-11.43 0,-23.043 C 35.653,5.184 34.969,4.5 34.126,4.5 l -23.252,0 c -0.843,0 -1.527,0.684 -1.527,1.527 z" /></g></g><g
           id="g28"
           style="fill:#ecff19;fill-opacity:1"><g
             id="g30"
             style="fill:#ecff19;fill-opacity:1"><path
               inkscape:connector-curvature="0"
               style="fill:#ecff19;fill-opacity:1;fill-rule:evenodd;stroke:none"
               id="path32"
               d="m 24.223,40.5 11.43,-11.43 -9.903,0 c -0.843,0 -1.527,0.684 -1.527,1.527 l 0,9.903 z" /></g></g><g
           id="g34"
           style="fill:#ecff19;fill-opacity:1"><g
             id="g36"
             style="fill:#ecff19;fill-opacity:1"><path
               inkscape:connector-curvature="0"
               style="fill:#ecff19;fill-opacity:1;fill-rule:nonzero;stroke:none"
               id="path38"
               d="m 16.856,12.603 c 0,-0.489 -0.178,-0.883 -0.535,-1.182 -0.304,-0.26 -0.749,-0.392 -1.334,-0.394 l -0.777,0 0,-2.365 -0.772,0 0,5.514 1.549,0 c 0.585,0 1.03,-0.13 1.334,-0.391 0.357,-0.309 0.535,-0.703 0.535,-1.182 z M 15.72,11.866 c 0.224,0.166 0.336,0.412 0.336,0.737 0,0.325 -0.112,0.567 -0.336,0.726 -0.202,0.143 -0.468,0.214 -0.796,0.214 l -0.714,0 0,-1.884 0.714,0 c 0.331,0 0.596,0.069 0.796,0.207 z" /></g></g><g
           id="g40"
           style="fill:#ecff19;fill-opacity:1"><g
             id="g42"
             style="fill:#ecff19;fill-opacity:1"><path
               inkscape:connector-curvature="0"
               style="fill:#ecff19;fill-opacity:1;fill-rule:nonzero;stroke:none"
               id="path44"
               d="m 22.37,14.176 0,-5.514 -0.761,0 -3.18,4.394 c 0.01,-0.495 0.016,-0.981 0.016,-1.46 l 0,-2.934 -0.765,0 0,5.514 0.815,0 3.122,-4.332 c -0.005,0.453 -0.008,0.923 -0.008,1.409 l 0,2.923 0.761,0 z" /></g></g><g
           id="g46"
           style="fill:#ecff19;fill-opacity:1"><g
             id="g48"
             style="fill:#ecff19;fill-opacity:1"><path
               inkscape:connector-curvature="0"
               style="fill:#ecff19;fill-opacity:1;fill-rule:nonzero;stroke:none"
               id="path50"
               d="m 28.434,11.604 0,-2.142 C 27.838,8.866 27.058,8.567 26.093,8.564 c -0.799,0 -1.467,0.264 -2.006,0.793 -0.538,0.528 -0.807,1.216 -0.807,2.064 0,0.843 0.267,1.526 0.801,2.05 0.535,0.524 1.203,0.787 2.004,0.787 0.89,0 1.62,-0.307 2.189,-0.921 l 0.039,-0.039 -0.527,-0.488 c -0.447,0.523 -1.014,0.784 -1.701,0.784 -0.58,0 -1.059,-0.196 -1.438,-0.587 -0.378,-0.392 -0.568,-0.92 -0.568,-1.586 0,-0.661 0.195,-1.188 0.584,-1.582 0.389,-0.395 0.878,-0.592 1.469,-0.592 0.666,0 1.164,0.149 1.494,0.445 l 0.055,0.059 0,1.221 -1.487,0 0,0.632 2.24,0 z" /></g></g></g></g></g></svg>