<?xml version="1.0" encoding="UTF-8" standalone="no"?>
<svg
   xmlns:dc="http://purl.org/dc/elements/1.1/"
   xmlns:cc="http://creativecommons.org/ns#"
   xmlns:rdf="http://www.w3.org/1999/02/22-rdf-syntax-ns#"
   xmlns:svg="http://www.w3.org/2000/svg"
   xmlns="http://www.w3.org/2000/svg"
   xmlns:sodipodi="http://sodipodi.sourceforge.net/DTD/sodipodi-0.dtd"
   xmlns:inkscape="http://www.inkscape.org/namespaces/inkscape"
   height="32px"
   id="Layer_1"
   style="enable-background:new 0 0 32 32;"
   version="1.1"
   viewBox="0 0 32 32"
   width="32px"
   x="0px"
   xml:space="preserve"
   y="0px"
   inkscape:version="0.48.2 r9819"
   sodipodi:docname="share.svg"><metadata
     id="metadata3140"><rdf:RDF><cc:Work
         rdf:about=""><dc:format>image/svg+xml</dc:format><dc:type
           rdf:resource="http://purl.org/dc/dcmitype/StillImage" /></cc:Work></rdf:RDF></metadata><defs
     id="defs3138" /><sodipodi:namedview
     pagecolor="#ffffff"
     bordercolor="#666666"
     borderopacity="1"
     objecttolerance="10"
     gridtolerance="10"
     guidetolerance="10"
     inkscape:pageopacity="0"
     inkscape:pageshadow="2"
     inkscape:window-width="1440"
     inkscape:window-height="768"
     id="namedview3136"
     showgrid="false"
     inkscape:zoom="7.375"
     inkscape:cx="-8"
     inkscape:cy="16"
     inkscape:window-x="0"
     inkscape:window-y="0"
     inkscape:window-maximized="1"
     inkscape:current-layer="Layer_1" /><path
     d="M25.961,13.322C27.225,11.907,28,10.046,28,8c0-4.418-3.582-8-8-8s-8,3.582-8,8c-4.418,0-8,3.582-8,8  c0,2.046,0.775,3.907,2.039,5.322C2.381,23.076,0,26.378,0,30c0,1.078,0.844,2,2,2h20c1.156,0,2-0.922,2-2  c0-2.215-0.898-4.306-2.427-6H30c1.156,0,2-0.922,2-2C32,18.378,29.619,15.076,25.961,13.322z M20,4c2.209,0,4,1.791,4,4  s-1.791,4-4,4c-0.422,0-0.821-0.083-1.203-0.205c-0.652-1.052-1.54-1.939-2.592-2.592C16.083,8.821,16,8.422,16,8  C16,5.791,17.791,4,20,4z M12,12c2.209,0,4,1.791,4,4s-1.791,4-4,4s-4-1.791-4-4S9.791,12,12,12z M4.494,28  C5.569,25.835,8.32,24,12,24s6.431,1.835,7.506,4H4.494z M18.914,20C19.6,18.823,20,17.46,20,16c3.68,0,6.431,1.835,7.506,4H18.914z  "
     id="path3134"
     style="fill:#ffae00;fill-opacity:1" /></svg>